<?xml version="1.0" encoding="UTF-8" standalone="no"?>
<!-- Generator: Adobe Illustrator 16.0.1, SVG Export Plug-In . SVG Version: 6.00 Build 0)  -->

<svg
   xmlns:dc="http://purl.org/dc/elements/1.1/"
   xmlns:cc="http://creativecommons.org/ns#"
   xmlns:rdf="http://www.w3.org/1999/02/22-rdf-syntax-ns#"
   xmlns:svg="http://www.w3.org/2000/svg"
   xmlns="http://www.w3.org/2000/svg"
   xmlns:sodipodi="http://sodipodi.sourceforge.net/DTD/sodipodi-0.dtd"
   xmlns:inkscape="http://www.inkscape.org/namespaces/inkscape"
   version="1.1"
   id="Layer_1"
   x="0px"
   y="0px"
   width="102.896"
   height="102.896"
   viewBox="0 0 102.896 102.896"
   xml:space="preserve"
   inkscape:version="0.48.4 r9939"
   sodipodi:docname="logo_genkgo_alt.svg"
   inkscape:export-filename="C:\Users\Martijn de Wit\ownCloud\Genkgo\Logo\screen\logo_rondo_alt.png"
   inkscape:export-xdpi="419.84"
   inkscape:export-ydpi="419.84"><metadata
   id="metadata27"><rdf:RDF><cc:Work
       rdf:about=""><dc:format>image/svg+xml</dc:format><dc:type
         rdf:resource="http://purl.org/dc/dcmitype/StillImage" /><dc:title></dc:title></cc:Work></rdf:RDF></metadata><defs
   id="defs25" /><sodipodi:namedview
   pagecolor="#ffffff"
   bordercolor="#666666"
   borderopacity="1"
   objecttolerance="10"
   gridtolerance="10"
   guidetolerance="10"
   inkscape:pageopacity="0"
   inkscape:pageshadow="2"
   inkscape:window-width="1920"
   inkscape:window-height="1027"
   id="namedview23"
   showgrid="false"
   inkscape:zoom="1.2011402"
   inkscape:cx="201.89149"
   inkscape:cy="51.801998"
   inkscape:window-x="-8"
   inkscape:window-y="-8"
   inkscape:window-maximized="1"
   inkscape:current-layer="Layer_1"
   fit-margin-top="0"
   fit-margin-left="0"
   fit-margin-right="0"
   fit-margin-bottom="0" />
<circle
   cx="51.448002"
   cy="52.155998"
   r="45.464001"
   id="circle3"
   sodipodi:cx="51.448002"
   sodipodi:cy="52.155998"
   sodipodi:rx="45.464001"
   sodipodi:ry="45.464001"
   style="fill:#00a8ab"
   transform="translate(-2.0062103e-6,-0.708)" />
<circle
   cx="51.448002"
   cy="52.155998"
   r="45.464001"
   id="circle5"
   sodipodi:cx="51.448002"
   sodipodi:cy="52.155998"
   sodipodi:rx="45.464001"
   sodipodi:ry="45.464001"
   style="fill:#00aaad"
   transform="translate(-2.0062103e-6,-0.708)" />






<path
   d="m 102.896,51.448 c 0,28.416 -23.034002,51.448 -51.448002,51.448 C 23.033998,102.896 -2.0062103e-6,79.864 -2.0062103e-6,51.448 -2.0062103e-6,23.034 23.033998,0 51.447998,0 79.861998,0 102.896,23.034 102.896,51.448 z M 51.447998,5.984 c -25.109,0 -45.464,20.354 -45.464,45.464 0,25.11 20.355,45.465 45.464,45.465 25.109,0 45.464,-20.355 45.464,-45.465 0,-25.11 -20.354,-45.464 -45.464,-45.464 z"
   id="path19"
   style="fill:#ffffff"
   inkscape:connector-curvature="0" />
<path
   d="m 86.398998,33.153 c -0.103,-0.263 -11.557,4.992 -11.683,4.733 -0.124,-0.257 11.078,-6.017 10.941,-6.26 -2.083,-3.662 -5.757,-5.973 -9.834,-6.563 -0.116,-0.017 -3.349,12.097 -3.468,12.081 -0.341,-0.041 2.427,-12.196 2.081,-12.214 -2.414,-0.118 -4.919,0.362 -7.283,1.509 0,0 4.194,9.501 1.965,12.278 -2.184,2.711 -5.355,3.86 -6.295,3.444 -1.988,-3.423 -5.44,-9.271 -4.792,-12.166 0.863,-3.854 8.226,-8.701 8.226,-8.701 -1.382,-2.624 -3.29,-4.758 -5.465,-6.315 -0.308,-0.221 -5.058,12.234 -5.377,12.038 -0.106,-0.064 4.216,-12.796 4.106,-12.861 -3.898,-2.28 -8.462,-2.792 -12.437,-1.045 -0.266,0.113 6.097,12.795 5.837,12.931 -0.265,0.137 -7.138,-12.266 -7.382,-12.112 -3.687,2.29 -5.839,6.349 -6.156,10.853 -0.009,0.129 12.943,3.739 12.932,3.868 -0.015,0.377 -12.974,-2.719 -12.965,-2.336 0.056,2.669 0.746,5.44 2.124,8.057 0,0 10.149,-3.899 12.584,-2.023 0.896,0.69 5.177,3.765 5.389,15.464 -2.192,2.242 -20.672,-12.286 -25.148,-6.767 -0.01,0.012 -0.021,0.028 -0.03,0.041 -0.616,0.329 -1.271,0.043 -2.227,-2.167 -1.221,-2.823 4.459,-10.274 4.459,-10.274 -1.74,-1.427 -3.753,-2.299 -5.825,-2.636 -0.293,-0.047 -0.715,10.982 -1.012,10.957 -0.096,-0.007 -0.072,-11.085 -0.174,-11.093 -3.578,-0.229 -7.211,1.104 -9.805,3.894 -0.175,0.183 7.979,7.212 7.816,7.413 -0.165,0.199 -8.642,-6.433 -8.791,-6.226 -2.234,3.087 -2.835,6.908 -1.912,10.374 0.026,0.098 10.886,-2.082 10.914,-1.981 0.083,0.283 -10.651,2.853 -10.545,3.132 0.731,1.962 1.977,3.76 3.71,5.187 0,0 6.174,-6.855 9.213,-6.371 2.134,0.341 2.838,0.985 2.991,1.595 -1.993,3.523 -4.055,9.544 -5.13,15.244 -0.604,1.12 -1.887,1.629 -3.968,0.687 -1.923,-0.868 -2.699,-7.8 -2.699,-7.8 -1.507,0.123 -2.883,0.684 -4.035,1.559 -0.164,0.126 4.829,6.27 4.675,6.408 -0.051,0.047 -5.256,-5.922 -5.307,-5.873 -1.824,1.706 -2.938,4.277 -2.871,7.103 0.002,0.188 7.225,-0.202 7.239,-0.011 0.016,0.193 -7.173,0.961 -7.147,1.147 0.38,2.801 1.894,5.161 3.967,6.552 0.06,0.041 4.242,-6.683 4.301,-6.643 0.175,0.111 -3.763,6.978 -3.582,7.074 1.276,0.681 2.719,1.011 4.223,0.893 0,0 -0.342,-6.966 1.418,-8.133 1.834,-1.212 3.168,-0.83 3.304,0.07 -0.647,5.196 -0.235,9.64 2.138,10.928 6.325,3.433 11.199,0.166 14.374,-2.509 1.191,1.111 -0.155,6.858 -1.896,12.588 h -16.061 c 0,0 -2.338,8.813 5.213,13.337 7.552,4.523 32.613,4.791 40.621,0 8.25,-5.156 5.214,-13.337 5.214,-13.337 h -15.635 c -1.362,-8.786 -3.194,-19.134 -4.583,-21.446 -2.507,-4.18 -10.294,-5.982 -13.417,-2.788 -7.021,7.188 -6.034,-0.2 -5.295,-7.188 0.669,-6.352 11.792,3.194 22.321,3.026 0.405,-0.007 0.77,-0.057 1.113,-0.13 1.831,0.543 5.491,4.303 6.408,7.573 0.946,3.358 -6.373,10.048 -6.373,10.048 1.682,1.982 3.741,3.426 5.939,4.306 0.314,0.126 2.409,-11.747 2.729,-11.646 0.106,0.031 -1.568,12.055 -1.459,12.086 3.857,1.133 8.003,0.584 11.239,-1.801 0.218,-0.156 -7.606,-9.806 -7.395,-9.982 0.209,-0.177 8.437,9.122 8.628,8.936 2.888,-2.797 4.11,-6.799 3.621,-10.789 -0.011,-0.114 -12.145,-0.436 -12.158,-0.549 -0.048,-0.331 12.001,-0.461 11.929,-0.789 -0.505,-2.312 -1.59,-4.57 -3.262,-6.551 0,0 -7.8,6.117 -10.961,4.635 -2.752,-1.295 -5.777,-4.918 -6.612,-6.927 1.136,-1.612 1.064,-4.291 0.045,-7.274 0.61,-1.434 3.322,-3.11 6.709,-3.148 3.561,-0.039 8.44,9.132 8.44,9.132 2.371,-1.152 4.299,-2.832 5.698,-4.807 0.199,-0.283 -11.078,-5.606 -10.899,-5.897 0.057,-0.097 11.584,4.84 11.641,4.739 2.053,-3.571 2.506,-7.892 0.916,-11.791 z"
   id="path21"
   inkscape:connector-curvature="0"
   style="fill:#ffffff" />
</svg>