<?xml version="1.0" encoding="UTF-8" standalone="no"?>
<!-- Generator: Adobe Illustrator 16.0.1, SVG Export Plug-In . SVG Version: 6.00 Build 0)  -->

<svg
   xmlns:dc="http://purl.org/dc/elements/1.1/"
   xmlns:cc="http://creativecommons.org/ns#"
   xmlns:rdf="http://www.w3.org/1999/02/22-rdf-syntax-ns#"
   xmlns:svg="http://www.w3.org/2000/svg"
   xmlns="http://www.w3.org/2000/svg"
   xmlns:sodipodi="http://sodipodi.sourceforge.net/DTD/sodipodi-0.dtd"
   xmlns:inkscape="http://www.inkscape.org/namespaces/inkscape"
   version="1.1"
   id="Layer_1"
   x="0px"
   y="0px"
   width="403.783px"
   height="103.604px"
   viewBox="0 0 403.783 103.604"
   xml:space="preserve"
   inkscape:version="0.48.2 r9819"
   sodipodi:docname="logo_genkgo.svg"><metadata
   id="metadata27"><rdf:RDF><cc:Work
       rdf:about=""><dc:format>image/svg+xml</dc:format><dc:type
         rdf:resource="http://purl.org/dc/dcmitype/StillImage" /><dc:title></dc:title></cc:Work></rdf:RDF></metadata><defs
   id="defs25" /><sodipodi:namedview
   pagecolor="#ffffff"
   bordercolor="#666666"
   borderopacity="1"
   objecttolerance="10"
   gridtolerance="10"
   guidetolerance="10"
   inkscape:pageopacity="0"
   inkscape:pageshadow="2"
   inkscape:window-width="1920"
   inkscape:window-height="1028"
   id="namedview23"
   showgrid="false"
   inkscape:zoom="1.2011402"
   inkscape:cx="201.89149"
   inkscape:cy="51.801998"
   inkscape:window-x="0"
   inkscape:window-y="0"
   inkscape:window-maximized="1"
   inkscape:current-layer="Layer_1" />
<circle
   fill="#00A8AB"
   cx="51.448"
   cy="52.156"
   r="45.464"
   id="circle3" />
<circle
   fill="#00AAAD"
   cx="51.448"
   cy="52.156"
   r="45.464"
   id="circle5" />
<path
   d="M129.178,66.244l3.866-4.775l5.571-3.18l-5.117-2.164l-3.751-3.066l-1.933-4.776l-0.34-6.594l1.591-6.14l3.752-4.548  l6.026-3.979l7.391-1.478h8.3l7.386,2.387l7.959-0.341l7.277-0.341l-0.454,9.892l-8.414-0.91l1.48,5.458l-0.799,7.16l-3.41,6.139  l-5.23,3.865l-5.23,2.161l-5.341,0.685l-5.002-0.23l-2.956,2.502l0.227,2.729l4.094,1.933h4.093h7.159h6.939l6.478,2.047  l4.206,4.661l0.342,7.955l-2.273,7.395l-6.139,5.795l-7.388,2.955l-9.439,1.251l-6.25-0.112l-7.618-0.793l-5.909-1.936l-3.755-2.73  l-2.047-4.203l0.683-5.117l3.3-3.752l7.728-3.409l-3.751-1.935l-3.639-4.889L129.178,66.244z M139.752,90.117l3.411,1.137  l6.367,1.025l6.139-0.57l4.205-1.365l3.184-2.498l1.025-3.979l-1.364-2.272l-3.184-0.91l-5.119-0.227h-6.932h-5.23l-3.297,2.387  l-1.479,3.863L139.752,90.117z M141.002,46.574l2.273,4.438l5.455,2.047l5.347-2.391l2.273-5.458l0.111-4.545l-3.066-5.116  l-4.776-1.592l-3.638,0.91l-3.297,3.297l-0.682,3.524V46.574z"
   id="path7"
   style="fill:#ffffff" />
<path
   d="M186.683,55.217l0.908,5.912l3.07,5.115l5.343,2.388l6.255,0.228l7.386-1.479l6.368-3.297l3.41,9.436l-6.25,3.184  l-6.258,1.935l-7.275,1.137l-9.889-0.456l-7.842-3.523l-4.551-5.116l-3.638-9.21l-0.683-8.865l1.367-9.437l3.521-6.594l3.752-5.116  l5.344-3.297l5.685-1.819l6.933-0.568l7.166,1.365l4.66,2.955l4.32,4.207l2.046,5.799l1.479,8.186l0.112,6.934H186.683z   M206.007,43.391l-1.364-3.976l-2.274-2.502l-3.184-1.591l-3.975,0.114l-3.301,1.137l-2.044,2.388l-1.819,3.411l-0.569,4.32  l18.53,0.111V43.391z"
   id="path9"
   style="fill:#ffffff" />
<path
   d="M235.204,26.454l-0.227,6.594l3.751-3.524l4.548-2.728l5.23-1.137l5.115-0.113l5.113,1.819l3.755,3.524l2.272,4.889  l0.34,6.139l-0.791,36.494h-13.645l0.792-31.381l-0.109-3.521l-0.456-3.527l-1.933-2.385l-3.069-1.023l-3.755,0.569l-3.636,1.705  l-3.41,2.729l-0.907,36.493h-13.761l1.027-51.615H235.204z"
   id="path11"
   style="fill:#ffffff" />
<path
   d="M279.087,78.182h-13.07L268.211,0H281.4l-1.857,50.557l16.145-23.762h16.373l-18.536,22.963l18.191,28.652h-15.119  l-17.054-26.15L279.087,78.182z"
   id="path13"
   style="fill:#ffffff" />
<path
   fill="#00AAAD"
   d="M310.037,66.244l3.865-4.775l5.568-3.18l-5.113-2.164l-3.752-3.066l-1.933-4.776l-0.345-6.594l1.592-6.14  l3.755-4.548l6.023-3.979l7.391-1.478h8.3l7.39,2.387l7.956-0.341l7.276-0.341l-0.451,9.892l-8.418-0.91l1.481,5.458l-0.796,7.16  l-3.41,6.139l-5.228,3.865l-5.229,2.161l-5.348,0.685l-5.002-0.23l-2.957,2.502l0.229,2.729l4.093,1.933h4.093h7.163h6.937  l6.48,2.047l4.206,4.661l0.339,7.955l-2.271,7.395l-6.14,5.795l-7.391,2.955l-9.436,1.251l-6.255-0.112l-7.614-0.793l-5.912-1.936  l-3.752-2.73l-2.047-4.203l0.686-5.117l3.294-3.752l7.731-3.409l-3.752-1.935l-3.639-4.889L310.037,66.244z M320.611,90.117  l3.41,1.137l6.363,1.025l6.141-0.57l4.207-1.365l3.184-2.498l1.022-3.979l-1.364-2.272l-3.184-0.91l-5.113-0.227h-6.938h-5.23  l-3.294,2.387l-1.479,3.863L320.611,90.117z M321.862,46.574l2.272,4.438l5.458,2.047l5.34-2.391l2.274-5.458l0.117-4.545  l-3.073-5.116l-4.774-1.592l-3.64,0.91l-3.293,3.297l-0.682,3.524V46.574z"
   id="path15" />
<path
   fill="#00AAAD"
   d="M357.398,40.666l4.659-7.959l5.685-3.979l5.573-2.615l7.388-0.91l7.846,1.364l5.685,3.07l4.434,4.32  l3.64,6.14l1.02,6.705l0.457,6.256l-1.364,8.297l-2.159,6.025l-3.525,5.117l-4.662,3.637l-5.685,2.275l-7.276,0.908l-5.685-0.112  l-5.113-1.706l-5.458-3.184L358.99,69.2l-2.615-6.366l-0.568-7.957v-7.848L357.398,40.666z M370.016,62.379l2.846,5.116l5.23,2.159  l4.431-0.682l5.002-3.639l1.479-6.025l0.568-5.568v-6.14l-1.137-5.343l-1.93-3.866l-3.982-2.501l-4.548-0.455l-5.341,3.069  l-2.391,4.662l-0.91,5.571v5.002L370.016,62.379z"
   id="path17" />
<path
   d="M102.896,52.156c0,28.416-23.034,51.448-51.448,51.448S0,80.572,0,52.156C0,23.742,23.034,0.708,51.448,0.708  S102.896,23.742,102.896,52.156z M51.448,6.692c-25.109,0-45.464,20.354-45.464,45.464s20.355,45.465,45.464,45.465  s45.464-20.355,45.464-45.465S76.558,6.692,51.448,6.692z"
   id="path19"
   style="fill:#ffffff" />
<path
   fill="#FFFFFF"
   d="M86.399,33.861c-0.103-0.263-11.557,4.992-11.683,4.733c-0.124-0.257,11.078-6.017,10.941-6.26  c-2.083-3.662-5.757-5.973-9.834-6.563c-0.116-0.017-3.349,12.097-3.468,12.081c-0.341-0.041,2.427-12.196,2.081-12.214  c-2.414-0.118-4.919,0.362-7.283,1.509c0,0,4.194,9.501,1.965,12.278c-2.184,2.711-5.355,3.86-6.295,3.444  c-1.988-3.423-5.44-9.271-4.792-12.166c0.863-3.854,8.226-8.701,8.226-8.701c-1.382-2.624-3.29-4.758-5.465-6.315  c-0.308-0.221-5.058,12.234-5.377,12.038c-0.106-0.064,4.216-12.796,4.106-12.861c-3.898-2.28-8.462-2.792-12.437-1.045  c-0.266,0.113,6.097,12.795,5.837,12.931c-0.265,0.137-7.138-12.266-7.382-12.112c-3.687,2.29-5.839,6.349-6.156,10.853  c-0.009,0.129,12.943,3.739,12.932,3.868C52.3,29.736,39.341,26.64,39.35,27.023c0.056,2.669,0.746,5.44,2.124,8.057  c0,0,10.149-3.899,12.584-2.023c0.896,0.69,5.177,3.765,5.389,15.464c-2.192,2.242-20.672-12.286-25.148-6.767  c-0.01,0.012-0.021,0.028-0.03,0.041c-0.616,0.329-1.271,0.043-2.227-2.167c-1.221-2.823,4.459-10.274,4.459-10.274  c-1.74-1.427-3.753-2.299-5.825-2.636c-0.293-0.047-0.715,10.982-1.012,10.957c-0.096-0.007-0.072-11.085-0.174-11.093  c-3.578-0.229-7.211,1.104-9.805,3.894c-0.175,0.183,7.979,7.212,7.816,7.413c-0.165,0.199-8.642-6.433-8.791-6.226  c-2.234,3.087-2.835,6.908-1.912,10.374c0.026,0.098,10.886-2.082,10.914-1.981c0.083,0.283-10.651,2.853-10.545,3.132  c0.731,1.962,1.977,3.76,3.71,5.187c0,0,6.174-6.855,9.213-6.371c2.134,0.341,2.838,0.985,2.991,1.595  c-1.993,3.523-4.055,9.544-5.13,15.244c-0.604,1.12-1.887,1.629-3.968,0.687c-1.923-0.868-2.699-7.8-2.699-7.8  c-1.507,0.123-2.883,0.684-4.035,1.559c-0.164,0.126,4.829,6.27,4.675,6.408c-0.051,0.047-5.256-5.922-5.307-5.873  c-1.824,1.706-2.938,4.277-2.871,7.103c0.002,0.188,7.225-0.202,7.239-0.011c0.016,0.193-7.173,0.961-7.147,1.147  c0.38,2.801,1.894,5.161,3.967,6.552c0.06,0.041,4.242-6.683,4.301-6.643c0.175,0.111-3.763,6.978-3.582,7.074  c1.276,0.681,2.719,1.011,4.223,0.893c0,0-0.342-6.966,1.418-8.133c1.834-1.212,3.168-0.83,3.304,0.07  c-0.647,5.196-0.235,9.64,2.138,10.928c6.325,3.433,11.199,0.166,14.374-2.509c1.191,1.111-0.155,6.858-1.896,12.588H26.024  c0,0-2.338,8.813,5.213,13.337c7.552,4.523,32.613,4.791,40.621,0c8.25-5.156,5.214-13.337,5.214-13.337H61.437  c-1.362-8.786-3.194-19.134-4.583-21.446c-2.507-4.18-10.294-5.982-13.417-2.788c-7.021,7.188-6.034-0.2-5.295-7.188  c0.669-6.352,11.792,3.194,22.321,3.026c0.405-0.007,0.77-0.057,1.113-0.13c1.831,0.543,5.491,4.303,6.408,7.573  c0.946,3.358-6.373,10.048-6.373,10.048c1.682,1.982,3.741,3.426,5.939,4.306c0.314,0.126,2.409-11.747,2.729-11.646  c0.106,0.031-1.568,12.055-1.459,12.086c3.857,1.133,8.003,0.584,11.239-1.801c0.218-0.156-7.606-9.806-7.395-9.982  c0.209-0.177,8.437,9.122,8.628,8.936c2.888-2.797,4.11-6.799,3.621-10.789c-0.011-0.114-12.145-0.436-12.158-0.549  c-0.048-0.331,12.001-0.461,11.929-0.789c-0.505-2.312-1.59-4.57-3.262-6.551c0,0-7.8,6.117-10.961,4.635  c-2.752-1.295-5.777-4.918-6.612-6.927c1.136-1.612,1.064-4.291,0.045-7.274c0.61-1.434,3.322-3.11,6.709-3.148  c3.561-0.039,8.44,9.132,8.44,9.132c2.371-1.152,4.299-2.832,5.698-4.807c0.199-0.283-11.078-5.606-10.899-5.897  c0.057-0.097,11.584,4.84,11.641,4.739C87.536,42.081,87.989,37.76,86.399,33.861z"
   id="path21" />
</svg>